<svg width="24" height="24" viewBox="0 0 24 24" fill="none" xmlns="http://www.w3.org/2000/svg">
<path d="M23.2534 2.91001C23.3936 3.05059 23.4723 3.241 23.4723 3.43951C23.4723 3.63802 23.3936 3.82843 23.2534 3.96901L21.6889 5.53501L18.6889 2.53501L20.2534 0.96901C20.3941 0.828407 20.5848 0.74942 20.7837 0.74942C20.9826 0.74942 21.1733 0.828407 21.3139 0.96901L23.2534 2.90851V2.91001ZM20.6284 6.59401L17.6284 3.59401L7.40893 13.815C7.32637 13.8975 7.26422 13.9982 7.22743 14.109L6.01993 17.73C5.99803 17.796 5.99492 17.8668 6.01095 17.9345C6.02698 18.0022 6.06151 18.0641 6.11069 18.1132C6.15987 18.1624 6.22176 18.197 6.28944 18.213C6.35711 18.229 6.42792 18.2259 6.49393 18.204L10.1149 16.9965C10.2256 16.9602 10.3262 16.8985 10.4089 16.8165L20.6284 6.59551V6.59401Z" fill="black"/>
<path fill-rule="evenodd" clip-rule="evenodd" d="M1.50049 20.25C1.50049 20.8467 1.73754 21.419 2.1595 21.841C2.58145 22.2629 3.15375 22.5 3.75049 22.5H20.2505C20.8472 22.5 21.4195 22.2629 21.8415 21.841C22.2634 21.419 22.5005 20.8467 22.5005 20.25V11.25C22.5005 11.0511 22.4215 10.8603 22.2808 10.7197C22.1402 10.579 21.9494 10.5 21.7505 10.5C21.5516 10.5 21.3608 10.579 21.2202 10.7197C21.0795 10.8603 21.0005 11.0511 21.0005 11.25V20.25C21.0005 20.4489 20.9215 20.6397 20.7808 20.7803C20.6402 20.921 20.4494 21 20.2505 21H3.75049C3.55158 21 3.36081 20.921 3.22016 20.7803C3.07951 20.6397 3.00049 20.4489 3.00049 20.25V3.75C3.00049 3.55109 3.07951 3.36032 3.22016 3.21967C3.36081 3.07902 3.55158 3 3.75049 3H13.5005C13.6994 3 13.8902 2.92098 14.0308 2.78033C14.1715 2.63968 14.2505 2.44891 14.2505 2.25C14.2505 2.05109 14.1715 1.86032 14.0308 1.71967C13.8902 1.57902 13.6994 1.5 13.5005 1.5H3.75049C3.15375 1.5 2.58145 1.73705 2.1595 2.15901C1.73754 2.58097 1.50049 3.15326 1.50049 3.75V20.25Z" fill="black"/>
</svg>
