<?xml version="1.0" encoding="UTF-8"?>
<!DOCTYPE svg PUBLIC "-//W3C//DTD SVG 1.1//EN" "http://www.w3.org/Graphics/SVG/1.1/DTD/svg11.dtd">
<!-- Creator: CorelDRAW X7 -->
<svg xmlns="http://www.w3.org/2000/svg" xml:space="preserve" width="945px" height="945px" version="1.1" style="shape-rendering:geometricPrecision; text-rendering:geometricPrecision; image-rendering:optimizeQuality; fill-rule:evenodd; clip-rule:evenodd"
viewBox="0 0 945 945"
 xmlns:xlink="http://www.w3.org/1999/xlink">
 <defs>
  <style type="text/css">
   <![CDATA[
    .fil2 {fill:none}
    .fil4 {fill:none;fill-rule:nonzero}
    .fil1 {fill:#FEFEFE}
    .fil0 {fill:#1D2A54}
    .fil3 {fill:#1D2A54;fill-rule:nonzero}
   ]]>
  </style>
   <clipPath id="id0">
    <path d="M0 0l945 0 0 945 -945 0 0 -945z"/>
   </clipPath>
    <clipPath id="id1">
     <path d="M472 22c253,0 457,202 457,450 0,249 -204,451 -457,451 -252,0 -457,-202 -457,-451 0,-248 205,-450 457,-450z"/>
    </clipPath>
    <clipPath id="id2">
     <path d="M0 0l945 0 0 945 -945 0 0 -945z"/>
    </clipPath>
    <clipPath id="id3" style="clip-rule:nonzero">
     <path d="M663 469c0,-24 8,-44 22,-57 14,-14 34,-21 60,-21 26,0 47,7 61,20 14,14 21,33 21,57 0,18 -3,32 -9,43 -6,12 -15,20 -27,27 -12,6 -26,9 -44,9 -18,0 -33,-3 -44,-8 -12,-5 -21,-14 -29,-26 -7,-11 -11,-26 -11,-44zm-545 -75l149 0 0 37 -57 0 0 114 -45 0 0 -114 -47 0 0 -37zm162 75c0,-24 8,-44 22,-57 15,-14 35,-21 62,-21 27,0 48,7 62,20 15,14 22,33 22,57 0,18 -3,32 -10,43 -6,12 -15,20 -27,27 -12,6 -27,9 -45,9 -18,0 -34,-3 -46,-8 -12,-5 -21,-14 -29,-26 -7,-11 -11,-26 -11,-44zm50 0c0,16 3,27 9,33 6,7 15,10 25,10 11,0 19,-3 25,-10 6,-6 9,-18 9,-35 0,-14 -3,-24 -9,-31 -6,-6 -15,-10 -25,-10 -10,0 -19,4 -25,10 -6,7 -9,18 -9,33zm233 21l0 -29 70 0c-5,9 -1,13 5,11l7 -3 -1 75 -34 0 0 -11c-35,21 -100,19 -122,-22 -7,-12 -10,-26 -10,-42 0,-16 4,-29 11,-41 28,-49 128,-59 151,18l-48 0c-2,-6 -8,-12 -13,-15 -4,-3 -10,-5 -17,-5 -11,0 -19,4 -26,11 -6,7 -9,16 -9,32 0,16 3,28 9,35 7,6 16,10 27,10 6,0 11,-1 16,-2 5,-2 10,-4 17,-8l0 -14 -33 0zm149 -21c0,16 3,27 9,33 6,7 14,10 24,10 11,0 19,-3 25,-10 6,-6 9,-18 9,-35 0,-14 -4,-24 -10,-31 -6,-6 -14,-10 -24,-10 -10,0 -18,4 -24,10 -6,7 -9,18 -9,33z"/>
    </clipPath>
    <clipPath id="id4" style="clip-rule:nonzero">
     <path d="M0 0l945 0 0 945 -945 0 0 -945z"/>
    </clipPath>
 </defs>
 <g id="Слой_x0020_1">
  <metadata id="CorelCorpID_0Corel-Layer"/>
  <g>
  </g>
  <g style="clip-path:url(#id0)">
   <g>
    <path class="fil0" d="M472 22c253,0 457,202 457,450 0,249 -204,451 -457,451 -252,0 -457,-202 -457,-451 0,-248 205,-450 457,-450z"/>
   </g>
   <g style="clip-path:url(#id1)">
    <g id="_1117213552">
     <g>
      <ellipse class="fil1" transform="matrix(1.43515 0.719941 -0.777109 1.561 247.843 336.519)" rx="32" ry="14"/>
      <ellipse class="fil1" transform="matrix(-1.48788 -1.03734 1.35884 -1.96055 372.076 215.008)" rx="32" ry="14"/>
      <ellipse class="fil1" transform="matrix(-0.839101 -1.61262 2.93902 -1.27503 623.063 130.856)" rx="32" ry="14"/>
      <ellipse class="fil1" transform="matrix(1.44152 0.00346091 0.0759203 1.50471 738.115 274.249)" rx="24" ry="23"/>
      <ellipse class="fil1" transform="matrix(1.01491 0.654883 -1.01931 1.58964 538.906 308.773)" rx="32" ry="14"/>
      <ellipse class="fil1" transform="matrix(1.02659 0.432642 -0.496241 1.37487 403.103 379.308)" rx="32" ry="14"/>
      <ellipse class="fil1" transform="matrix(0.841386 0.354591 -0.406717 1.12684 521.482 417.426)" rx="32" ry="14"/>
      <ellipse class="fil1" transform="matrix(0.614772 0.24307 -0.434622 0.863655 606.39 450.701)" rx="32" ry="14"/>
      <ellipse class="fil1" transform="matrix(0.492233 0.135049 -0.261395 0.699783 667.216 479.11)" rx="32" ry="14"/>
      <ellipse class="fil1" transform="matrix(0.438214 0.0878845 -0.185692 0.62748 712.116 503.098)" rx="32" ry="14"/>
      <ellipse class="fil1" transform="matrix(0.375174 0.0519976 -0.12519 0.540441 742.967 522.626)" rx="32" ry="14"/>
      <ellipse class="fil1" transform="matrix(0.294019 0.0407499 -0.0981098 0.423537 766.142 539.762)" rx="32" ry="14"/>
      <ellipse class="fil1" transform="matrix(0.270201 0.0374488 -0.0901621 0.389227 780.858 554.211)" rx="32" ry="14"/>
      <ellipse class="fil1" transform="matrix(0.215125 0.0298155 -0.071784 0.309889 790.807 566.002)" rx="32" ry="14"/>
      <ellipse class="fil1" transform="matrix(0.17456 0.0241934 -0.0582483 0.251456 797.187 575.885)" rx="32" ry="14"/>
      <ellipse class="fil1" transform="matrix(0.147062 0.0203822 -0.0490724 0.211844 801.177 584.272)" rx="32" ry="14"/>
      <ellipse class="fil1" transform="matrix(0.133996 0.0185714 -0.0447126 0.193023 801.411 591.974)" rx="32" ry="14"/>
      <ellipse class="fil1" transform="matrix(0.118117 0.0163706 -0.0394141 0.170149 801.08 598.418)" rx="32" ry="14"/>
      <ellipse class="fil1" transform="matrix(0.101476 0.0140642 -0.0338612 0.146178 799.932 604.216)" rx="32" ry="14"/>
      <ellipse class="fil1" transform="matrix(0.0827059 0.0114627 -0.0275978 0.119139 797.681 608.69)" rx="32" ry="14"/>
      <ellipse class="fil1" transform="matrix(1.16429 0.350807 -0.377502 1.26697 227.82 451.539)" rx="32" ry="14"/>
      <ellipse class="fil1" transform="matrix(0.875566 0.260801 -0.204519 1.04509 345.422 459.984)" rx="32" ry="14"/>
      <ellipse class="fil1" transform="matrix(0.718875 0.217194 -0.167918 0.855748 446.947 473.71)" rx="32" ry="14"/>
      <ellipse class="fil1" transform="matrix(0.628526 0.200625 -0.146814 0.790809 530.57 487.201)" rx="32" ry="14"/>
      <ellipse class="fil1" transform="matrix(0.456579 0.124719 -0.10665 0.670191 595.608 503.385)" rx="32" ry="14"/>
      <ellipse class="fil1" transform="matrix(0.437036 0.0287204 0.0267807 0.628074 647.408 517.946)" rx="32" ry="14"/>
      <ellipse class="fil1" transform="matrix(0.362249 0.0238057 0.0221979 0.520596 688.089 531.595)" rx="32" ry="14"/>
      <ellipse class="fil1" transform="matrix(0.31362 0.02061 0.019218 0.45071 718.142 544.077)" rx="32" ry="14"/>
      <ellipse class="fil1" transform="matrix(0.268225 0.0176268 0.0164363 0.385472 740.243 555.584)" rx="32" ry="14"/>
      <ellipse class="fil1" transform="matrix(0.223528 0.0146895 0.0136974 0.321238 757.649 565.326)" rx="32" ry="14"/>
      <ellipse class="fil1" transform="matrix(0.196885 0.0129386 0.0120648 0.282949 769.653 573.702)" rx="32" ry="14"/>
      <ellipse class="fil1" transform="matrix(0.164664 0.0108212 0.0100903 0.236643 778.383 581.43)" rx="32" ry="14"/>
      <ellipse class="fil1" transform="matrix(0.141236 0.00928152 0.00865466 0.202973 784.579 588.317)" rx="32" ry="14"/>
      <ellipse class="fil1" transform="matrix(0.114832 0.00754636 0.00703669 0.165028 788.495 594.622)" rx="32" ry="14"/>
      <ellipse class="fil1" transform="matrix(0.103224 0.00678352 0.00632537 0.148346 790.462 599.942)" rx="32" ry="14"/>
      <ellipse class="fil1" transform="matrix(0.0856925 0.00563141 0.00525107 0.123151 791.4 604.438)" rx="32" ry="14"/>
      <ellipse class="fil1" transform="matrix(0.0856925 0.00563141 0.00525107 0.123151 790.65 608.669)" rx="32" ry="14"/>
      <ellipse class="fil1" transform="matrix(0.873756 0.263268 -0.283301 0.950813 268.38 543.273)" rx="32" ry="14"/>
      <ellipse class="fil1" transform="matrix(0.798898 0.189113 -0.18661 0.756206 347.626 534.569)" rx="32" ry="14"/>
      <ellipse class="fil1" transform="matrix(0.655637 0.191043 -0.153147 0.638345 423.563 532.087)" rx="32" ry="14"/>
      <ellipse class="fil1" transform="matrix(0.557926 0.162507 -0.130323 0.640087 492.032 531.821)" rx="32" ry="14"/>
      <ellipse class="fil1" transform="matrix(0.482872 0.107248 -0.112791 0.575135 550.763 537.224)" rx="32" ry="14"/>
      <ellipse class="fil1" transform="matrix(0.421674 0.0936559 -0.0984965 0.502244 601.067 542.592)" rx="32" ry="14"/>
      <ellipse class="fil1" transform="matrix(0.391938 0.0304613 -0.0247209 0.465509 643.942 549.611)" rx="32" ry="14"/>
      <ellipse class="fil1" transform="matrix(0.311398 0.0282885 -0.019641 0.43422 677.777 556.435)" rx="32" ry="14"/>
      <ellipse class="fil1" transform="matrix(0.282126 0.0256293 -0.0177947 0.393402 704.993 563.944)" rx="32" ry="14"/>
      <ellipse class="fil1" transform="matrix(0.227991 0.0207114 -0.0143802 0.317915 724.937 570.236)" rx="32" ry="14"/>
      <ellipse class="fil1" transform="matrix(0.20164 0.0183177 -0.0127181 0.281171 742.487 577.477)" rx="32" ry="14"/>
      <ellipse class="fil1" transform="matrix(0.177468 0.0167146 -0.0111935 0.256802 755.275 583.545)" rx="32" ry="14"/>
      <ellipse class="fil1" transform="matrix(0.143228 0.0134898 -0.00903389 0.207256 765.277 589.408)" rx="32" ry="14"/>
      <ellipse class="fil1" transform="matrix(0.126759 0.0119386 -0.00799513 0.183425 772.726 594.278)" rx="32" ry="14"/>
      <ellipse class="fil1" transform="matrix(0.108351 0.0102049 -0.00683406 0.156788 778.431 599.923)" rx="32" ry="14"/>
      <ellipse class="fil1" transform="matrix(0.0922534 0.00868879 -0.00581875 0.133494 780.213 605.384)" rx="32" ry="14"/>
      <ellipse class="fil1" transform="matrix(0.767404 0.190618 -0.365599 1.38355 646.157 378.594)" rx="32" ry="14"/>
      <ellipse class="fil1" transform="matrix(0.612928 0.0911763 -0.187469 1.06976 715.583 429.53)" rx="32" ry="14"/>
      <ellipse class="fil1" transform="matrix(0.493165 0.0705352 -0.150839 0.827047 759.199 468.753)" rx="32" ry="14"/>
      <ellipse class="fil1" transform="matrix(0.435432 0.0294357 -0.0833341 0.658718 787.073 500.281)" rx="32" ry="14"/>
      <ellipse class="fil1" transform="matrix(0.353668 0.0239083 -0.0676859 0.535026 805.092 524.269)" rx="32" ry="14"/>
      <ellipse class="fil1" transform="matrix(0.299652 0.0202568 -0.0573483 0.453312 815.086 543.787)" rx="32" ry="14"/>
      <ellipse class="fil1" transform="matrix(0.251515 0.0170027 -0.0481357 0.38049 820.858 559.499)" rx="32" ry="14"/>
      <ellipse class="fil1" transform="matrix(0.21066 0.0142408 -0.0403166 0.318684 821.959 572.45)" rx="32" ry="14"/>
      <ellipse class="fil1" transform="matrix(0.187703 0.0126889 -0.0359231 0.283956 821.69 582.72)" rx="32" ry="14"/>
      <ellipse class="fil1" transform="matrix(0.165806 0.0112086 -0.0317323 0.25083 819.391 591.646)" rx="32" ry="14"/>
      <ellipse class="fil1" transform="matrix(0.133714 0.00903923 -0.0255906 0.202282 816.265 598.977)" rx="32" ry="14"/>
      <ellipse class="fil1" transform="matrix(0.118092 0.00798316 -0.0226008 0.178649 811.069 605.507)" rx="32" ry="14"/>
      <ellipse class="fil1" transform="matrix(0.0915877 0.00619142 -0.0175283 0.138553 805.599 609.521)" rx="32" ry="14"/>
      <ellipse class="fil1" transform="matrix(0.787791 0.194012 -0.255428 0.699376 337.112 611.14)" rx="32" ry="14"/>
      <ellipse class="fil1" transform="matrix(0.706586 0.174014 -0.229099 0.627285 388.166 594.116)" rx="32" ry="14"/>
      <ellipse class="fil1" transform="matrix(0.613781 0.164603 -0.199008 0.593861 436.404 583.215)" rx="32" ry="14"/>
      <ellipse class="fil1" transform="matrix(0.496071 0.14382 -0.160842 0.519248 485.527 575.694)" rx="32" ry="14"/>
      <ellipse class="fil1" transform="matrix(0.42389 0.136004 -0.137439 0.491442 533.994 571.214)" rx="32" ry="14"/>
      <ellipse class="fil1" transform="matrix(0.38088 0.112405 -0.123494 0.499094 577.09 569.613)" rx="32" ry="14"/>
      <ellipse class="fil1" transform="matrix(0.320408 0.0945587 -0.103887 0.419852 616.054 570.577)" rx="32" ry="14"/>
      <ellipse class="fil1" transform="matrix(0.272963 0.0805568 -0.0885036 0.357682 647.93 572.677)" rx="32" ry="14"/>
      <ellipse class="fil1" transform="matrix(0.269309 0.0544673 -0.0337075 0.348722 676.252 575.454)" rx="32" ry="14"/>
      <ellipse class="fil1" transform="matrix(0.226953 0.0500068 -0.0284061 0.320474 699.765 579.037)" rx="32" ry="14"/>
      <ellipse class="fil1" transform="matrix(0.202066 0.0445233 -0.0252912 0.285332 718.206 582.801)" rx="32" ry="14"/>
      <ellipse class="fil1" transform="matrix(0.152977 0.033707 -0.0191471 0.216015 733.525 586.692)" rx="32" ry="14"/>
      <ellipse class="fil1" transform="matrix(0.14523 0.0320001 -0.0181775 0.205075 745.399 590.2)" rx="32" ry="14"/>
      <ellipse class="fil1" transform="matrix(0.122865 0.027072 -0.0153781 0.173494 755.51 594.724)" rx="32" ry="14"/>
      <ellipse class="fil1" transform="matrix(0.10623 0.0234067 -0.013296 0.150004 762.349 598.847)" rx="32" ry="14"/>
      <ellipse class="fil1" transform="matrix(0.102347 0.0369733 -0.0325515 0.146976 767.263 603.938)" rx="32" ry="14"/>
      <ellipse class="fil1" transform="matrix(0.610592 0.101549 -0.197974 0.686697 414.191 659.995)" rx="32" ry="14"/>
      <ellipse class="fil1" transform="matrix(0.550473 0.09155 -0.178481 0.619084 441.745 641.065)" rx="32" ry="14"/>
      <ellipse class="fil1" transform="matrix(0.463993 0.089547 -0.150442 0.566911 470.823 626.57)" rx="32" ry="14"/>
      <ellipse class="fil1" transform="matrix(0.407281 0.0893869 -0.132054 0.536897 504.315 613.775)" rx="32" ry="14"/>
      <ellipse class="fil1" transform="matrix(0.34802 0.089491 -0.11284 0.506523 538.665 604.529)" rx="32" ry="14"/>
      <ellipse class="fil1" transform="matrix(0.312708 0.0626407 -0.10139 0.454152 572.734 598.304)" rx="32" ry="14"/>
      <ellipse class="fil1" transform="matrix(0.263059 0.0594005 -0.0852926 0.431252 604.535 593.755)" rx="32" ry="14"/>
      <ellipse class="fil1" transform="matrix(0.224107 0.0506047 -0.0726627 0.367393 633.335 591.046)" rx="32" ry="14"/>
      <ellipse class="fil1" transform="matrix(0.221106 0.0249161 -0.0276744 0.352421 659.777 589.785)" rx="32" ry="14"/>
      <ellipse class="fil1" transform="matrix(0.186332 0.0251034 -0.0233218 0.323591 681.335 590.603)" rx="32" ry="14"/>
      <ellipse class="fil1" transform="matrix(0.165899 0.0223507 -0.0207645 0.288107 699.853 591.599)" rx="32" ry="14"/>
      <ellipse class="fil1" transform="matrix(0.125597 0.0169209 -0.0157201 0.218116 715.635 594.015)" rx="32" ry="14"/>
      <ellipse class="fil1" transform="matrix(0.119236 0.016064 -0.014924 0.20707 729.058 596.722)" rx="32" ry="14"/>
      <ellipse class="fil1" transform="matrix(0.100874 0.0135901 -0.0126257 0.175181 741.43 599.411)" rx="32" ry="14"/>
      <ellipse class="fil1" transform="matrix(0.10662 0.0143644 -0.013345 0.185161 750.602 602.973)" rx="32" ry="14"/>
      <ellipse class="fil1" transform="matrix(0.0774547 0.010435 -0.00969448 0.134511 764.863 611.249)" rx="32" ry="14"/>
      <ellipse class="fil1" transform="matrix(0.0948445 0.0127779 -0.011871 0.164711 758.198 606.814)" rx="32" ry="14"/>
      <ellipse class="fil1" transform="matrix(0.0738366 0.0298779 -0.0253292 0.102222 771.431 608.495)" rx="32" ry="14"/>
      <ellipse class="fil1" transform="matrix(0.0651857 0.00613945 -0.00411149 0.0943262 779.463 609.468)" rx="32" ry="14"/>
      <ellipse class="fil1" transform="matrix(0.831943 -0.0015897 -0.0206001 1.50752 803.285 367.974)" rx="32" ry="14"/>
      <ellipse class="fil1" transform="matrix(0.625559 -0.00104487 -0.0154898 1.06886 836.093 431.241)" rx="32" ry="14"/>
      <ellipse class="fil1" transform="matrix(0.503618 -0.0400969 0.0543212 0.861899 852.887 476.681)" rx="32" ry="14"/>
      <ellipse class="fil1" transform="matrix(0.390116 -0.0310602 0.0420786 0.66765 859.007 510.291)" rx="32" ry="14"/>
      <ellipse class="fil1" transform="matrix(0.31266 0.018385 -0.0421792 0.496073 860.639 535.07)" rx="32" ry="14"/>
      <ellipse class="fil1" transform="matrix(0.31266 0.018385 -0.0421792 0.496073 859.326 552.937)" rx="32" ry="14"/>
      <ellipse class="fil1" transform="matrix(0.239693 0.0140945 -0.0323357 0.380303 853.833 568.812)" rx="32" ry="14"/>
      <ellipse class="fil1" transform="matrix(0.204603 0.0120311 -0.0276019 0.324627 848.53 581.389)" rx="32" ry="14"/>
      <ellipse class="fil1" transform="matrix(0.155695 0.00915518 -0.021004 0.247029 841.799 590.8)" rx="32" ry="14"/>
      <ellipse class="fil1" transform="matrix(0.122434 0.00719937 -0.0165169 0.194257 835.381 597.926)" rx="32" ry="14"/>
      <ellipse class="fil1" transform="matrix(0.117235 0.00689368 -0.0158156 0.186008 828.27 603.823)" rx="32" ry="14"/>
      <ellipse class="fil1" transform="matrix(0.0937087 0.00551027 -0.0126417 0.14868 821.891 608.31)" rx="32" ry="14"/>
      <ellipse class="fil1" transform="matrix(0.0937087 0.00551027 -0.0126417 0.14868 816.448 612.06)" rx="32" ry="14"/>
      <ellipse class="fil1" transform="matrix(0.0937087 0.00551027 -0.0126417 0.14868 826.49 615.374)" rx="32" ry="14"/>
      <ellipse class="fil1" transform="matrix(0.0937087 0.00551027 -0.0126417 0.14868 834.752 611.768)" rx="32" ry="14"/>
      <ellipse class="fil1" transform="matrix(0.117235 0.00689368 -0.0158156 0.186008 843.757 607.244)" rx="32" ry="14"/>
      <ellipse class="fil1" transform="matrix(0.122434 0.00719937 -0.0165169 0.194257 854.057 600.79)" rx="32" ry="14"/>
      <ellipse class="fil1" transform="matrix(0.155695 0.00915518 -0.021004 0.247029 866.013 593.77)" rx="32" ry="14"/>
      <ellipse class="fil1" transform="matrix(0.204603 0.0120311 -0.0276019 0.324627 878.094 583.525)" rx="32" ry="14"/>
      <ellipse class="fil1" transform="matrix(0.239693 0.0140945 -0.0323357 0.380303 891.843 570.121)" rx="32" ry="14"/>
      <ellipse class="fil1" transform="matrix(0.313002 -0.00855551 0.00136433 0.468769 904.986 553.312)" rx="32" ry="14"/>
      <ellipse class="fil1" transform="matrix(0.438319 -0.0348795 0.0248526 0.63542 919.976 530.099)" rx="32" ry="14"/>
      <ellipse class="fil1" transform="matrix(0.506455 -0.0403014 0.0287159 0.734195 933.292 499.445)" rx="32" ry="14"/>
      <ellipse class="fil1" transform="matrix(0.571774 -0.0657768 0.0324195 0.827736 942.143 455.781)" rx="32" ry="14"/>
      <ellipse class="fil1" transform="matrix(0.661888 -0.0895379 0.037529 1.12342 938.497 410.16)" rx="32" ry="14"/>
      <ellipse class="fil1" transform="matrix(0.519892 0.0759979 -0.168566 0.512874 495.012 693.86)" rx="32" ry="14"/>
      <ellipse class="fil1" transform="matrix(0.485433 0.0709606 -0.157393 0.47888 505.157 676.33)" rx="32" ry="14"/>
      <ellipse class="fil1" transform="matrix(0.460796 0.102055 -0.184406 0.448282 520.328 659.53)" rx="32" ry="14"/>
      <ellipse class="fil1" transform="matrix(0.423302 0.0937505 -0.169401 0.411805 539.756 644.729)" rx="32" ry="14"/>
      <ellipse class="fil1" transform="matrix(0.365633 0.0936176 -0.146322 0.411858 561.717 633.495)" rx="32" ry="14"/>
      <ellipse class="fil1" transform="matrix(0.343288 0.0878963 -0.13738 0.386688 585.155 623.038)" rx="32" ry="14"/>
      <ellipse class="fil1" transform="matrix(0.261103 0.0532631 -0.104491 0.397061 608.572 614.592)" rx="32" ry="14"/>
      <ellipse class="fil1" transform="matrix(0.239627 0.0488822 -0.0958962 0.364403 631.148 610.779)" rx="32" ry="14"/>
      <ellipse class="fil1" transform="matrix(0.212316 0.0433108 -0.0849663 0.32287 653.065 605.8)" rx="32" ry="14"/>
      <ellipse class="fil1" transform="matrix(0.194941 0.0397665 -0.0780132 0.296448 672.587 603.882)" rx="32" ry="14"/>
      <ellipse class="fil1" transform="matrix(0.16191 0.0330285 -0.0647948 0.246218 689.722 602.335)" rx="32" ry="14"/>
      <ellipse class="fil1" transform="matrix(0.136279 0.0278 -0.0545375 0.207241 705.968 601.516)" rx="32" ry="14"/>
      <ellipse class="fil1" transform="matrix(0.115035 0.0234662 -0.0460356 0.174934 720.106 602.766)" rx="32" ry="14"/>
      <ellipse class="fil1" transform="matrix(0.0898613 0.018331 -0.0359615 0.136653 730.925 604.956)" rx="32" ry="14"/>
      <ellipse class="fil1" transform="matrix(0.0898613 0.018331 -0.0359615 0.136653 740.498 607.423)" rx="32" ry="14"/>
      <ellipse class="fil1" transform="matrix(0.0813939 0.0166037 -0.0325729 0.123776 748.106 609.979)" rx="32" ry="14"/>
      <ellipse class="fil1" transform="matrix(0.059681 0.0169628 -0.0238837 0.088841 754.339 612.431)" rx="32" ry="14"/>
      <ellipse class="fil1" transform="matrix(0.0544117 0.0154652 -0.021775 0.0809972 759.611 614.863)" rx="32" ry="14"/>
      <ellipse class="fil1" transform="matrix(0.0645368 0.009204 -0.00807763 0.118758 770.274 614.77)" rx="32" ry="14"/>
      <ellipse class="fil1" transform="matrix(0.0484474 0.0137699 -0.0193881 0.0721186 763.828 617.316)" rx="32" ry="14"/>
      <ellipse class="fil1" transform="matrix(0.0526745 0.00496109 -0.00332237 0.076222 778.547 612.021)" rx="32" ry="14"/>
      <ellipse class="fil1" transform="matrix(0.050459 0.0204182 -0.0173097 0.0698572 774.346 612.648)" rx="32" ry="14"/>
      <ellipse class="fil1" transform="matrix(0.070764 0.00465036 0.00433628 0.101697 787.12 612.351)" rx="32" ry="14"/>
      <ellipse class="fil1" transform="matrix(0.0684308 0.00948426 -0.0228344 0.0985753 794.498 612.27)" rx="32" ry="14"/>
      <ellipse class="fil1" transform="matrix(0.0722587 0.00488476 -0.0138291 0.109312 800.989 613.169)" rx="32" ry="14"/>
      <ellipse class="fil1" transform="matrix(0.0808446 0.00475383 -0.0109063 0.12827 810.544 615.108)" rx="32" ry="14"/>
      <ellipse class="fil1" transform="matrix(0.070633 0.00415336 -0.00952871 0.112068 819.977 617.851)" rx="32" ry="14"/>
      <ellipse class="fil1" transform="matrix(0.0574131 0.00337601 -0.00774529 0.091093 814.086 619.352)" rx="32" ry="14"/>
      <ellipse class="fil1" transform="matrix(0.448435 0.0589628 -0.13875 0.443577 574.737 716.548)" rx="32" ry="14"/>
      <ellipse class="fil1" transform="matrix(0.431689 0.0567609 -0.133569 0.427012 574.006 700.049)" rx="32" ry="14"/>
      <ellipse class="fil1" transform="matrix(0.41763 0.077107 -0.151608 0.40908 576.477 683.85)" rx="32" ry="14"/>
      <ellipse class="fil1" transform="matrix(0.368829 0.0566653 -0.133893 0.300629 584.137 670.005)" rx="32" ry="14"/>
      <ellipse class="fil1" transform="matrix(0.368829 0.0680968 -0.133893 0.361277 596.291 656.081)" rx="32" ry="14"/>
      <ellipse class="fil1" transform="matrix(0.339547 0.0626905 -0.123263 0.332595 609.982 645.171)" rx="32" ry="14"/>
      <ellipse class="fil1" transform="matrix(0.320761 0.0768172 -0.116443 0.327467 625.045 635.884)" rx="32" ry="14"/>
      <ellipse class="fil1" transform="matrix(0.275736 0.0767135 -0.100098 0.327505 641.322 628.869)" rx="32" ry="14"/>
      <ellipse class="fil1" transform="matrix(0.247689 0.0689104 -0.0899162 0.294192 656.179 621.413)" rx="32" ry="14"/>
      <ellipse class="fil1" transform="matrix(0.200478 0.0557756 -0.0727776 0.238117 672.574 616.514)" rx="32" ry="14"/>
      <ellipse class="fil1" transform="matrix(0.200478 0.0557756 -0.0727776 0.238117 686.934 613.348)" rx="32" ry="14"/>
      <ellipse class="fil1" transform="matrix(0.158588 0.0441212 -0.0575706 0.188362 701.342 611.271)" rx="32" ry="14"/>
      <ellipse class="fil1" transform="matrix(0.130541 0.0363182 -0.0473889 0.155049 713.103 610.297)" rx="32" ry="14"/>
      <ellipse class="fil1" transform="matrix(0.0936353 0.0266409 -0.0439856 0.113735 722.818 610.192)" rx="32" ry="14"/>
      <ellipse class="fil1" transform="matrix(0.0899322 0.0255873 -0.042246 0.109237 731.81 610.943)" rx="32" ry="14"/>
      <ellipse class="fil1" transform="matrix(0.0820521 0.0233453 -0.0385443 0.0996654 739.341 613.464)" rx="32" ry="14"/>
      <ellipse class="fil1" transform="matrix(0.0754203 0.0214584 -0.035429 0.09161 745.669 615.866)" rx="32" ry="14"/>
      <ellipse class="fil1" transform="matrix(0.433975 0.0330125 -0.111519 0.41408 655.307 731.987)" rx="32" ry="14"/>
      <ellipse class="fil1" transform="matrix(0.422226 0.0321188 -0.1085 0.402869 644.322 716.605)" rx="32" ry="14"/>
      <ellipse class="fil1" transform="matrix(0.4062 0.0308997 -0.104382 0.387578 638.55 700.446)" rx="32" ry="14"/>
      <ellipse class="fil1" transform="matrix(0.369844 0.0281341 -0.0950391 0.352888 634.844 687.202)" rx="32" ry="14"/>
      <ellipse class="fil1" transform="matrix(0.341096 0.0552632 -0.115924 0.319946 637.033 673.645)" rx="32" ry="14"/>
      <ellipse class="fil1" transform="matrix(0.310687 0.0503365 -0.10559 0.291422 642.336 662.709)" rx="32" ry="14"/>
      <ellipse class="fil1" transform="matrix(0.255651 0.0476658 -0.0868853 0.276513 650.313 652.232)" rx="32" ry="14"/>
      <ellipse class="fil1" transform="matrix(0.24117 0.0449657 -0.0819636 0.26085 659.135 643.272)" rx="32" ry="14"/>
      <ellipse class="fil1" transform="matrix(0.220879 0.0411827 -0.0750678 0.238904 669.459 636.103)" rx="32" ry="14"/>
      <ellipse class="fil1" transform="matrix(0.194781 0.0363166 -0.0661979 0.210675 680.721 629.597)" rx="32" ry="14"/>
      <ellipse class="fil1" transform="matrix(0.167236 0.031181 -0.0568368 0.180883 691.468 624.617)" rx="32" ry="14"/>
      <ellipse class="fil1" transform="matrix(0.133926 0.042267 -0.0645931 0.142445 701.464 620.683)" rx="32" ry="14"/>
      <ellipse class="fil1" transform="matrix(0.126101 0.0397976 -0.0608193 0.134123 711.386 618.165)" rx="32" ry="14"/>
      <ellipse class="fil1" transform="matrix(0.106425 0.0335876 -0.0513291 0.113195 721.066 616)" rx="32" ry="14"/>
      <ellipse class="fil1" transform="matrix(0.0888519 0.0280416 -0.0428537 0.094504 730.112 615.679)" rx="32" ry="14"/>
      <ellipse class="fil1" transform="matrix(0.0796325 0.0351658 -0.0494739 0.0833004 737.157 617.392)" rx="32" ry="14"/>
      <ellipse class="fil1" transform="matrix(0.0607683 0.0344174 -0.052176 0.0664629 742.995 619.507)" rx="32" ry="14"/>
      <ellipse class="fil1" transform="matrix(0.428404 0.028939 -0.110087 0.361525 806.699 764.765)" rx="32" ry="14"/>
      <ellipse class="fil1" transform="matrix(0.405144 0.0273677 -0.10411 0.341896 780.796 755.77)" rx="32" ry="14"/>
      <ellipse class="fil1" transform="matrix(0.405144 0.0273677 -0.10411 0.341896 751.515 747.613)" rx="32" ry="14"/>
      <ellipse class="fil1" transform="matrix(0.405144 0.0273677 -0.10411 0.341896 731.993 738.164)" rx="32" ry="14"/>
      <ellipse class="fil1" transform="matrix(0.405144 0.0273677 -0.10411 0.341896 713.787 726.648)" rx="32" ry="14"/>
      <ellipse class="fil1" transform="matrix(0.375996 0.0253988 -0.09662 0.317298 698.396 712.293)" rx="32" ry="14"/>
      <ellipse class="fil1" transform="matrix(0.338161 0.0253116 -0.0868976 0.31732 688.355 699.385)" rx="32" ry="14"/>
      <ellipse class="fil1" transform="matrix(0.313396 0.0234579 -0.0805336 0.294081 682.3 687.007)" rx="32" ry="14"/>
      <ellipse class="fil1" transform="matrix(0.287204 0.0214974 -0.0738032 0.269504 680.611 674.753)" rx="32" ry="14"/>
      <ellipse class="fil1" transform="matrix(0.262466 0.0196457 -0.067446 0.24629 680.471 663.611)" rx="32" ry="14"/>
      <ellipse class="fil1" transform="matrix(0.233344 0.0174659 -0.0599626 0.218963 683.661 654.794)" rx="32" ry="14"/>
      <ellipse class="fil1" transform="matrix(0.215918 0.0161616 -0.0554847 0.202611 689.293 646.389)" rx="32" ry="14"/>
      <ellipse class="fil1" transform="matrix(0.19844 0.0148533 -0.0509933 0.18621 695.768 639.301)" rx="32" ry="14"/>
      <ellipse class="fil1" transform="matrix(0.175179 0.0131123 -0.045016 0.164383 702.994 633.046)" rx="32" ry="14"/>
      <ellipse class="fil1" transform="matrix(0.147959 0.0117835 -0.0380211 0.148013 709.625 628.687)" rx="32" ry="14"/>
      <ellipse class="fil1" transform="matrix(0.122471 0.0230764 -0.0449348 0.120103 717.191 625.103)" rx="32" ry="14"/>
      <ellipse class="fil1" transform="matrix(0.1218 0.0264377 -0.0482131 0.118813 724.364 621.909)" rx="32" ry="14"/>
      <ellipse class="fil1" transform="matrix(0.0923055 0.0200356 -0.036538 0.0900415 731.618 620.121)" rx="32" ry="14"/>
      <ellipse class="fil1" transform="matrix(0.0676785 0.0146901 -0.0267897 0.0660185 738.092 620.687)" rx="32" ry="14"/>
      <ellipse class="fil1" transform="matrix(0.405144 0.0273677 -0.10411 0.341896 835.793 749.125)" rx="32" ry="14"/>
      <ellipse class="fil1" transform="matrix(0.381487 0.0264675 -0.0980312 0.330964 810.254 739.442)" rx="32" ry="14"/>
      <ellipse class="fil1" transform="matrix(0.381487 0.0264675 -0.0980312 0.330964 784.164 728.661)" rx="32" ry="14"/>
      <ellipse class="fil1" transform="matrix(0.381487 0.0264675 -0.0980312 0.330964 762.767 716.574)" rx="32" ry="14"/>
      <ellipse class="fil1" transform="matrix(0.340722 0.0236392 -0.0875557 0.295598 743.433 705.372)" rx="32" ry="14"/>
      <ellipse class="fil1" transform="matrix(0.340722 0.0236392 -0.0875557 0.295598 730.294 693.491)" rx="32" ry="14"/>
      <ellipse class="fil1" transform="matrix(0.302887 0.0210143 -0.0778333 0.262774 721.05 683.263)" rx="32" ry="14"/>
      <ellipse class="fil1" transform="matrix(0.248314 0.0191973 -0.0638095 0.240917 715.817 673.501)" rx="32" ry="14"/>
      <ellipse class="fil1" transform="matrix(0.235165 0.0181808 -0.0604307 0.22816 712.578 663.755)" rx="32" ry="14"/>
      <ellipse class="fil1" transform="matrix(0.207496 0.0160416 -0.0533204 0.201315 711.686 654.355)" rx="32" ry="14"/>
      <ellipse class="fil1" transform="matrix(0.184209 0.0142413 -0.0473364 0.178722 713.751 646.312)" rx="32" ry="14"/>
      <ellipse class="fil1" transform="matrix(0.168209 0.0130044 -0.0432249 0.163198 718.302 639.585)" rx="32" ry="14"/>
      <ellipse class="fil1" transform="matrix(0.141252 0.0109203 -0.0362978 0.137045 723.157 633.575)" rx="32" ry="14"/>
      <ellipse class="fil1" transform="matrix(0.130063 0.0197763 -0.0429534 0.124383 729.121 628.838)" rx="32" ry="14"/>
      <ellipse class="fil1" transform="matrix(0.10514 0.0168233 -0.0355428 0.100394 735.041 625.171)" rx="32" ry="14"/>
      <ellipse class="fil1" transform="matrix(0.0815743 0.0130525 -0.0275763 0.0778916 741.107 623.566)" rx="32" ry="14"/>
      <ellipse class="fil1" transform="matrix(0.394284 0.0230022 -0.131727 0.285652 849.098 723.413)" rx="32" ry="14"/>
      <ellipse class="fil1" transform="matrix(0.371201 0.0222421 -0.124822 0.27652 824.937 715.315)" rx="32" ry="14"/>
      <ellipse class="fil1" transform="matrix(0.371201 0.0222421 -0.124822 0.27652 800.332 706.297)" rx="32" ry="14"/>
      <ellipse class="fil1" transform="matrix(0.371201 0.0222421 -0.124822 0.27652 780.436 696.191)" rx="32" ry="14"/>
      <ellipse class="fil1" transform="matrix(0.331535 0.0198654 -0.111484 0.246971 762.482 686.824)" rx="32" ry="14"/>
      <ellipse class="fil1" transform="matrix(0.331535 0.0198654 -0.111484 0.246971 750.653 676.891)" rx="32" ry="14"/>
      <ellipse class="fil1" transform="matrix(0.294721 0.0176595 -0.0991046 0.219547 742.494 668.342)" rx="32" ry="14"/>
      <ellipse class="fil1" transform="matrix(0.241447 0.0161232 -0.0834694 0.201288 738.221 660.183)" rx="32" ry="14"/>
      <ellipse class="fil1" transform="matrix(0.216763 0.015242 -0.074936 0.190639 736.285 652.039)" rx="32" ry="14"/>
      <ellipse class="fil1" transform="matrix(0.182189 0.0134277 -0.0629835 0.168216 736.48 644.185)" rx="32" ry="14"/>
      <ellipse class="fil1" transform="matrix(0.155898 0.0119073 -0.0538948 0.149342 737.816 637.462)" rx="32" ry="14"/>
      <ellipse class="fil1" transform="matrix(0.114928 0.0094453 -0.039731 0.118731 740.113 631.832)" rx="32" ry="14"/>
      <ellipse class="fil1" transform="matrix(0.0940747 0.0077315 -0.0325221 0.0971879 743.276 627.681)" rx="32" ry="14"/>
      <ellipse class="fil1" transform="matrix(0.0734777 0.012542 -0.0322326 0.074191 746.547 624.783)" rx="32" ry="14"/>
      <ellipse class="fil1" transform="matrix(0.0519593 0.0202364 -0.0347334 0.0494601 747.791 621.172)" rx="32" ry="14"/>
      <ellipse class="fil1" transform="matrix(0.362319 0.0251864 -0.121048 0.314901 857.359 701.081)" rx="32" ry="14"/>
      <ellipse class="fil1" transform="matrix(0.339843 0.0261041 -0.113539 0.327467 830.822 693.786)" rx="32" ry="14"/>
      <ellipse class="fil1" transform="matrix(0.296364 0.0252479 -0.0990125 0.317715 808.954 686.163)" rx="32" ry="14"/>
      <ellipse class="fil1" transform="matrix(0.258694 0.0231216 -0.0864274 0.291348 792.436 678.391)" rx="32" ry="14"/>
      <ellipse class="fil1" transform="matrix(0.235403 0.0210399 -0.0786462 0.265117 778.354 671.774)" rx="32" ry="14"/>
      <ellipse class="fil1" transform="matrix(0.217438 0.033321 -0.0885115 0.241589 769.121 664.307)" rx="32" ry="14"/>
      <ellipse class="fil1" transform="matrix(0.189372 0.0290201 -0.0770869 0.210406 760.648 656.845)" rx="32" ry="14"/>
      <ellipse class="fil1" transform="matrix(0.162274 0.0248675 -0.0660563 0.180298 753.853 649.654)" rx="32" ry="14"/>
      <ellipse class="fil1" transform="matrix(0.142108 0.0217771 -0.0578471 0.157892 750.098 643.437)" rx="32" ry="14"/>
      <ellipse class="fil1" transform="matrix(0.129108 0.0128734 -0.0525554 0.146262 749.675 637.5)" rx="32" ry="14"/>
      <ellipse class="fil1" transform="matrix(0.105306 0.0105 -0.0428663 0.119297 749.746 632.433)" rx="32" ry="14"/>
      <ellipse class="fil1" transform="matrix(0.0800646 0.00798327 -0.0325916 0.0907024 750.803 628.473)" rx="32" ry="14"/>
      <ellipse class="fil1" transform="matrix(0.0569686 0.0110737 -0.02319 0.0623422 751.577 625.853)" rx="32" ry="14"/>
      <ellipse class="fil1" transform="matrix(0.0362979 0.0101477 -0.0147756 0.0384631 751.378 622.927)" rx="32" ry="14"/>
      <ellipse class="fil1" transform="matrix(0.0792785 0.033466 -0.043736 0.138137 827.965 621.773)" rx="32" ry="14"/>
      <ellipse class="fil1" transform="matrix(0.0792785 0.033466 -0.043736 0.138137 835.08 620.462)" rx="32" ry="14"/>
      <ellipse class="fil1" transform="matrix(0.0991823 0.0361591 -0.0547164 0.149107 841.874 618.409)" rx="32" ry="14"/>
      <ellipse class="fil1" transform="matrix(0.121813 0.0269096 -0.062602 0.155032 849.412 615.22)" rx="32" ry="14"/>
      <ellipse class="fil1" transform="matrix(0.149921 0.0318434 -0.0827075 0.200581 860.253 611.197)" rx="32" ry="14"/>
      <ellipse class="fil1" transform="matrix(0.187603 0.0045976 0.0196891 0.255879 875.721 604.919)" rx="32" ry="14"/>
      <ellipse class="fil1" transform="matrix(0.216062 0.0372752 -0.0706405 0.299917 891.541 597.813)" rx="32" ry="14"/>
      <ellipse class="fil1" transform="matrix(0.279239 0.0166904 -0.0288186 0.381572 909.727 588.223)" rx="32" ry="14"/>
      <ellipse class="fil1" transform="matrix(0.0597562 0.025225 -0.032966 0.104121 821.213 622.835)" rx="32" ry="14"/>
      <ellipse class="fil1" transform="matrix(0.0485721 0.0205038 -0.026796 0.0846334 815.82 622.495)" rx="32" ry="14"/>
      <ellipse class="fil1" transform="matrix(0.0605427 0.0235794 -0.0404712 0.0576307 750.926 617.557)" rx="32" ry="14"/>
      <ellipse class="fil1" transform="matrix(0.0362979 0.0101477 -0.0147756 0.0384631 742.741 621.802)" rx="32" ry="14"/>
      <ellipse class="fil1" transform="matrix(0.0275696 0.00770757 -0.0112227 0.0292142 745.654 622.595)" rx="32" ry="14"/>
      <ellipse class="fil1" transform="matrix(0.0195731 0.00547201 -0.00796756 0.0207407 748.099 623.261)" rx="32" ry="14"/>
      <ellipse class="fil1" transform="matrix(0.258694 0.0231216 -0.0864274 0.291348 876.902 684.982)" rx="32" ry="14"/>
      <ellipse class="fil1" transform="matrix(0.258694 0.0231216 -0.0864274 0.291348 850.998 680.785)" rx="32" ry="14"/>
      <ellipse class="fil1" transform="matrix(0.237717 0.0212467 -0.079419 0.267722 830.048 675.618)" rx="32" ry="14"/>
      <ellipse class="fil1" transform="matrix(0.217449 0.0194352 -0.0726478 0.244897 811.371 669.694)" rx="32" ry="14"/>
      <ellipse class="fil1" transform="matrix(0.194264 0.0173629 -0.0649018 0.218785 796.872 663.544)" rx="32" ry="14"/>
      <ellipse class="fil1" transform="matrix(0.165242 0.0147691 -0.055206 0.1861 785.702 658.108)" rx="32" ry="14"/>
      <ellipse class="fil1" transform="matrix(0.150022 0.0134087 -0.050121 0.168959 776.338 653.394)" rx="32" ry="14"/>
      <ellipse class="fil1" transform="matrix(0.119581 0.010688 -0.039951 0.134675 770.003 648.977)" rx="32" ry="14"/>
      <ellipse class="fil1" transform="matrix(0.113798 0.0101711 -0.0380189 0.128162 765.028 644.451)" rx="32" ry="14"/>
      <ellipse class="fil1" transform="matrix(0.0992874 0.00887413 -0.033171 0.11182 761.274 640.161)" rx="32" ry="14"/>
      <ellipse class="fil1" transform="matrix(0.0821887 0.0159038 -0.037237 0.0905327 758.928 636.416)" rx="32" ry="14"/>
      <ellipse class="fil1" transform="matrix(0.0691553 0.0133818 -0.031332 0.0761761 759.072 632.636)" rx="32" ry="14"/>
      <ellipse class="fil1" transform="matrix(0.0472629 0.00914553 -0.0214133 0.0520612 758.897 629.591)" rx="32" ry="14"/>
      <ellipse class="fil1" transform="matrix(0.040153 0.00776974 -0.018192 0.0442295 758.782 627.378)" rx="32" ry="14"/>
      <ellipse class="fil1" transform="matrix(0.226246 0.0235544 -0.0755869 0.297942 865.205 667.368)" rx="32" ry="14"/>
      <ellipse class="fil1" transform="matrix(0.24714 0.0257295 -0.0825671 0.325456 887.093 664.956)" rx="32" ry="14"/>
      <ellipse class="fil1" transform="matrix(0.185578 0.0193204 -0.062 0.244386 844.366 664.699)" rx="32" ry="14"/>
      <ellipse class="fil1" transform="matrix(0.168654 0.0283411 -0.0707112 0.219926 824.223 661.164)" rx="32" ry="14"/>
      <ellipse class="fil1" transform="matrix(0.147281 0.0247496 -0.0617504 0.192056 809.26 655.895)" rx="32" ry="14"/>
      <ellipse class="fil1" transform="matrix(0.130919 0.0303972 -0.0660775 0.169027 797.563 651.493)" rx="32" ry="14"/>
      <ellipse class="fil1" transform="matrix(0.107785 0.0250259 -0.0544014 0.139159 787.509 647.342)" rx="32" ry="14"/>
      <ellipse class="fil1" transform="matrix(0.099071 0.0230026 -0.0500032 0.127909 779.808 643.262)" rx="32" ry="14"/>
      <ellipse class="fil1" transform="matrix(0.0862073 0.0200159 -0.0435106 0.111301 772.909 639.407)" rx="32" ry="14"/>
      <ellipse class="fil1" transform="matrix(0.0765336 0.0177698 -0.0386281 0.0988111 768.743 635.307)" rx="32" ry="14"/>
      <ellipse class="fil1" transform="matrix(0.0658226 0.0152829 -0.033222 0.0849822 765.872 631.677)" rx="32" ry="14"/>
      <ellipse class="fil1" transform="matrix(0.044167 0.0102548 -0.022292 0.0570231 763.47 628.757)" rx="32" ry="14"/>
      <ellipse class="fil1" transform="matrix(0.168654 0.0251679 -0.0707112 0.194941 832.957 651.152)" rx="32" ry="14"/>
      <ellipse class="fil1" transform="matrix(0.185578 0.012037 -0.062 0.231138 851.027 652.823)" rx="32" ry="14"/>
      <ellipse class="fil1" transform="matrix(0.226246 0.00360687 -0.0755869 0.266867 871.774 653.925)" rx="32" ry="14"/>
      <ellipse class="fil1" transform="matrix(0.24714 0.0041581 -0.0825671 0.290148 895.916 653.124)" rx="32" ry="14"/>
      <ellipse class="fil1" transform="matrix(0.152037 0.0226881 -0.0637441 0.175733 818.756 647.932)" rx="32" ry="14"/>
      <ellipse class="fil1" transform="matrix(0.123808 0.0303315 -0.0659913 0.140171 807.397 644.301)" rx="32" ry="14"/>
      <ellipse class="fil1" transform="matrix(0.107769 0.0429456 -0.0770926 0.117917 796.808 639.694)" rx="32" ry="14"/>
      <ellipse class="fil1" transform="matrix(0.24714 -0.00740498 -0.0825671 0.294011 896.855 640.432)" rx="32" ry="14"/>
      <ellipse class="fil1" transform="matrix(0.226246 0.00360687 -0.0755869 0.266867 873.533 641.856)" rx="32" ry="14"/>
      <ellipse class="fil1" transform="matrix(0.184534 0.0232889 -0.0758798 0.226913 853.281 641.823)" rx="32" ry="14"/>
      <ellipse class="fil1" transform="matrix(0.147271 0.0217119 -0.0631643 0.189909 837.938 640.994)" rx="32" ry="14"/>
      <ellipse class="fil1" transform="matrix(0.141895 0.0453811 -0.0899093 0.177307 823.472 637.669)" rx="32" ry="14"/>
      <ellipse class="fil1" transform="matrix(0.11436 0.036575 -0.0724625 0.142901 811.857 633.594)" rx="32" ry="14"/>
      <ellipse class="fil1" transform="matrix(0.0861093 0.0275397 -0.0545617 0.107599 803.223 630.293)" rx="32" ry="14"/>
      <ellipse class="fil1" transform="matrix(0.240461 -0.00115966 -0.0988766 0.30864 888.314 628.004)" rx="32" ry="14"/>
      <ellipse class="fil1" transform="matrix(0.172365 0.00828463 -0.0825091 0.217431 866.394 631.11)" rx="32" ry="14"/>
      <ellipse class="fil1" transform="matrix(0.145124 0.0212905 -0.0877376 0.177093 849.948 631.672)" rx="32" ry="14"/>
      <ellipse class="fil1" transform="matrix(0.120098 0.0309932 -0.0896753 0.140972 835.853 631.671)" rx="32" ry="14"/>
      <ellipse class="fil1" transform="matrix(0.0946039 0.0244142 -0.0706395 0.111048 823.027 629.697)" rx="32" ry="14"/>
      <ellipse class="fil1" transform="matrix(0.0681176 0.0301517 -0.0669075 0.0747102 812.465 626.844)" rx="32" ry="14"/>
      <ellipse class="fil1" transform="matrix(0.172365 0.00828463 -0.0825091 0.217431 858.479 621.936)" rx="32" ry="14"/>
      <ellipse class="fil1" transform="matrix(0.184082 0.00998114 -0.0881181 0.261957 875.288 617.862)" rx="32" ry="14"/>
      <ellipse class="fil1" transform="matrix(0.240461 -0.00115966 -0.0988766 0.30864 894.696 613.614)" rx="32" ry="14"/>
      <ellipse class="fil1" transform="matrix(0.140705 0.00547294 -0.0657077 0.178032 843.37 625.049)" rx="32" ry="14"/>
      <ellipse class="fil1" transform="matrix(0.0918666 0.0112523 -0.064199 0.115569 832.911 626.062)" rx="32" ry="14"/>
      <path class="fil1" d="M750 606c-1,-2 -11,3 -13,4 -2,0 -11,7 -1,9 9,2 19,7 28,10 6,2 28,9 33,9 3,0 14,-7 15,-10 2,-4 6,-9 3,-13 -2,-2 1,-2 -6,-4 -3,-1 -9,-5 -16,-6 -4,-1 -10,-2 -15,-3 -2,0 -12,-1 -13,-1 -6,-2 -9,0 -14,3 0,0 -1,1 -1,2z"/>
      <ellipse class="fil1" transform="matrix(0.617456 -0.0333124 -0.0338174 0.553372 255.293 866.883)" rx="32" ry="14"/>
      <ellipse class="fil1" transform="matrix(0.797329 -0.0944616 -0.0436688 0.477672 319.808 825)" rx="32" ry="14"/>
      <ellipse class="fil1" transform="matrix(0.727035 -0.0530387 -0.0398189 0.475403 405.212 792.656)" rx="32" ry="14"/>
      <ellipse class="fil1" transform="matrix(0.627492 -0.0195046 -0.034367 0.408874 493.996 770.941)" rx="32" ry="14"/>
      <ellipse class="fil1" transform="matrix(0.570375 0.00550162 -0.0312388 0.370384 581.137 756.992)" rx="32" ry="14"/>
      <ellipse class="fil1" transform="matrix(0.529383 0.00673913 -0.0289937 0.343676 626.936 762.449)" rx="32" ry="14"/>
      <ellipse class="fil1" transform="matrix(0.529383 -0.016455 -0.0289937 0.344946 666.167 748.896)" rx="32" ry="14"/>
      <ellipse class="fil1" transform="matrix(0.370438 -0.0115145 -0.0202885 0.241377 671.26 750.362)" rx="32" ry="14"/>
      <ellipse class="fil1" transform="matrix(0.472915 0.0202887 -0.025901 0.305238 705.704 755.364)" rx="32" ry="14"/>
      <ellipse class="fil1" transform="matrix(0.379204 0.0202887 -0.0207686 0.305238 735.361 763.076)" rx="32" ry="14"/>
      <ellipse class="fil1" transform="matrix(0.356944 0.0202887 -0.0195494 0.305238 762.003 769.882)" rx="32" ry="14"/>
      <ellipse class="fil1" transform="matrix(0.297976 0.0169369 -0.0163198 0.254812 783.575 777.559)" rx="32" ry="14"/>
      <ellipse class="fil1" transform="matrix(0.280418 0.0159389 -0.0153582 0.239797 803.284 784.732)" rx="32" ry="14"/>
      <ellipse class="fil1" transform="matrix(0.570375 -0.0177292 -0.0312388 0.371656 552.681 774.018)" rx="32" ry="14"/>
      <ellipse class="fil1" transform="matrix(0.570375 -0.0177292 -0.0312388 0.371656 479.853 791.322)" rx="32" ry="14"/>
      <ellipse class="fil1" transform="matrix(0.686442 -0.0649708 -0.0375957 0.449675 409.993 815.608)" rx="32" ry="14"/>
      <ellipse class="fil1" transform="matrix(0.64545 -0.061091 -0.0353506 0.422823 437.773 836.696)" rx="32" ry="14"/>
      <ellipse class="fil1" transform="matrix(0.586846 -0.0555442 -0.0321409 0.384432 481.508 854.005)" rx="32" ry="14"/>
      <ellipse class="fil1" transform="matrix(0.501599 -0.0302125 -0.0514623 0.410594 534.816 866.562)" rx="32" ry="14"/>
      <ellipse class="fil1" transform="matrix(0.379686 -0.00716125 -0.0493693 0.298463 576.58 853.614)" rx="32" ry="14"/>
      <ellipse class="fil1" transform="matrix(0.379686 -0.00716125 -0.0493693 0.298463 609.241 844.208)" rx="32" ry="14"/>
      <ellipse class="fil1" transform="matrix(0.316648 -0.00662482 -0.0411727 0.276106 638.706 836.717)" rx="32" ry="14"/>
      <ellipse class="fil1" transform="matrix(0.279584 -0.00584938 -0.0363534 0.243788 662.668 832.658)" rx="32" ry="14"/>
      <ellipse class="fil1" transform="matrix(0.210869 -0.00441173 -0.0274186 0.18387 683.739 829.27)" rx="32" ry="14"/>
      <ellipse class="fil1" transform="matrix(0.187469 -0.00392216 -0.0243759 0.163466 701.43 826.406)" rx="32" ry="14"/>
      <ellipse class="fil1" transform="matrix(0.619386 -0.0907485 -0.0635469 0.565422 486.601 883.576)" rx="32" ry="14"/>
      <ellipse class="fil1" transform="matrix(0.809399 -0.216988 -0.0830416 0.863948 420.738 913.123)" rx="32" ry="14"/>
      <ellipse class="fil1" transform="matrix(0.707703 -0.0907485 -0.072608 0.565422 414.509 870.794)" rx="32" ry="14"/>
      <ellipse class="fil1" transform="matrix(0.954072 -0.216988 -0.0978846 0.863948 322.893 898.075)" rx="32" ry="14"/>
      <ellipse class="fil1" transform="matrix(0.791162 -0.0515172 -0.0811706 0.561397 355.146 850.66)" rx="32" ry="14"/>
      <ellipse class="fil1" transform="matrix(0.543811 -0.0421469 -0.0297839 0.403389 502.077 826.838)" rx="32" ry="14"/>
      <ellipse class="fil1" transform="matrix(0.543811 -0.0421469 -0.0297839 0.403389 482.931 809.722)" rx="32" ry="14"/>
      <ellipse class="fil1" transform="matrix(0.469151 0.00549226 -0.0562511 0.343347 540.561 806.398)" rx="32" ry="14"/>
      <ellipse class="fil1" transform="matrix(0.444685 -0.0073971 -0.0533176 0.326952 554.699 821.176)" rx="32" ry="14"/>
      <ellipse class="fil1" transform="matrix(0.512006 -0.0361307 -0.0613894 0.379761 534.897 842.729)" rx="32" ry="14"/>
      <ellipse class="fil1" transform="matrix(0.42473 -0.0299719 -0.050925 0.315027 577.521 834.067)" rx="32" ry="14"/>
      <ellipse class="fil1" transform="matrix(0.320392 -0.00159857 -0.0384149 0.25551 614.343 828.426)" rx="32" ry="14"/>
      <ellipse class="fil1" transform="matrix(0.320392 -0.00159857 -0.0384149 0.25551 646.629 825.041)" rx="32" ry="14"/>
      <ellipse class="fil1" transform="matrix(0.261881 -0.00130663 -0.0313994 0.208848 672.627 823.065)" rx="32" ry="14"/>
      <ellipse class="fil1" transform="matrix(0.198964 -0.000992717 -0.0238558 0.158673 692.1 821.795)" rx="32" ry="14"/>
      <ellipse class="fil1" transform="matrix(0.16614 0.00838838 -0.0199201 0.13139 708.545 821.093)" rx="32" ry="14"/>
      <ellipse class="fil1" transform="matrix(0.545238 0.0146872 -0.0714367 0.398106 541.291 789.731)" rx="32" ry="14"/>
      <ellipse class="fil1" transform="matrix(0.480246 0.0129365 -0.0629216 0.350653 590.259 791.342)" rx="32" ry="14"/>
      <ellipse class="fil1" transform="matrix(0.386659 0.00147859 -0.0506598 0.28349 588.101 804.999)" rx="32" ry="14"/>
      <ellipse class="fil1" transform="matrix(0.386659 0.00147859 -0.0506598 0.28349 597.581 817.79)" rx="32" ry="14"/>
      <ellipse class="fil1" transform="matrix(0.342863 0.00131112 -0.0449216 0.25138 626.771 804.135)" rx="32" ry="14"/>
      <ellipse class="fil1" transform="matrix(0.293151 0.00112102 -0.0384084 0.214932 631.317 815.936)" rx="32" ry="14"/>
      <ellipse class="fil1" transform="matrix(0.406501 0.0104122 -0.0532595 0.296878 629.891 791.453)" rx="32" ry="14"/>
      <ellipse class="fil1" transform="matrix(0.404769 0.0389824 -0.0739252 0.292399 644.955 779.039)" rx="32" ry="14"/>
      <ellipse class="fil1" transform="matrix(0.460623 0.0343255 -0.0603506 0.333453 602.717 775.312)" rx="32" ry="14"/>
      <ellipse class="fil1" transform="matrix(0.404769 0.0389824 -0.0739252 0.292399 669.563 766.838)" rx="32" ry="14"/>
      <ellipse class="fil1" transform="matrix(0.337961 0.035523 -0.0617237 0.26645 703.267 772.109)" rx="32" ry="14"/>
      <ellipse class="fil1" transform="matrix(0.337961 0.0521988 -0.0617237 0.263405 731.893 777.922)" rx="32" ry="14"/>
      <ellipse class="fil1" transform="matrix(0.288538 0.0632263 -0.0526973 0.221477 755.365 782.691)" rx="32" ry="14"/>
      <ellipse class="fil1" transform="matrix(0.256384 0.0561805 -0.0468249 0.196796 773.573 789.031)" rx="32" ry="14"/>
      <ellipse class="fil1" transform="matrix(0.233023 0.0510616 -0.0425584 0.178865 791.969 795.257)" rx="32" ry="14"/>
      <ellipse class="fil1" transform="matrix(0.293151 0.00112102 -0.0384084 0.214932 659.716 813.866)" rx="32" ry="14"/>
      <ellipse class="fil1" transform="matrix(0.24893 0.000951916 -0.0326147 0.182511 685.044 813.476)" rx="32" ry="14"/>
      <ellipse class="fil1" transform="matrix(0.225507 0.0220439 -0.0295458 0.162562 707.37 814.251)" rx="32" ry="14"/>
      <ellipse class="fil1" transform="matrix(0.750641 -0.216988 0.150906 0.863948 522.075 921.27)" rx="32" ry="14"/>
      <ellipse class="fil1" transform="matrix(0.533793 -0.0830672 0.148477 0.517563 563.461 891.637)" rx="32" ry="14"/>
      <ellipse class="fil1" transform="matrix(0.501599 -0.0302125 -0.0514623 0.410594 594.318 872.957)" rx="32" ry="14"/>
      <ellipse class="fil1" transform="matrix(0.379686 -0.00716125 -0.0493693 0.298463 624.331 860.14)" rx="32" ry="14"/>
      <ellipse class="fil1" transform="matrix(0.316781 -0.00597479 -0.0411899 0.249015 645.701 852.051)" rx="32" ry="14"/>
      <ellipse class="fil1" transform="matrix(0.253876 -0.00478834 -0.0330106 0.199566 664.425 844.942)" rx="32" ry="14"/>
      <ellipse class="fil1" transform="matrix(0.229043 0.00712859 -0.0297816 0.19404 682.962 839.461)" rx="32" ry="14"/>
      <ellipse class="fil1" transform="matrix(0.173513 0.00540032 -0.0225613 0.146997 699.106 835.235)" rx="32" ry="14"/>
      <ellipse class="fil1" transform="matrix(0.15449 0.00480827 -0.0200879 0.130881 711.824 833.018)" rx="32" ry="14"/>
      <ellipse class="fil1" transform="matrix(0.141304 0.00439787 -0.0183733 0.11971 724.352 832.235)" rx="32" ry="14"/>
      <ellipse class="fil1" transform="matrix(0.141304 0.0124798 -0.0183733 0.118659 735.852 832.353)" rx="32" ry="14"/>
      <ellipse class="fil1" transform="matrix(0.20524 0.0200628 -0.0268904 0.147952 725.114 816.346)" rx="32" ry="14"/>
      <ellipse class="fil1" transform="matrix(0.183329 0.0342368 -0.0240196 0.13643 739.898 819.523)" rx="32" ry="14"/>
      <ellipse class="fil1" transform="matrix(0.161364 0.0333439 -0.0211418 0.132872 754.211 822.523)" rx="32" ry="14"/>
      <ellipse class="fil1" transform="matrix(0.187208 0.0106522 -0.0369475 0.161081 720.108 824.995)" rx="32" ry="14"/>
      <ellipse class="fil1" transform="matrix(0.166191 0.0177315 -0.0216092 0.142155 734.207 826.123)" rx="32" ry="14"/>
      <ellipse class="fil1" transform="matrix(0.125253 0.0278207 -0.0162862 0.105258 745.612 828.181)" rx="32" ry="14"/>
      <ellipse class="fil1" transform="matrix(0.533793 -0.0830672 0.148477 0.517563 634.413 893.895)" rx="32" ry="14"/>
      <ellipse class="fil1" transform="matrix(0.425118 -0.0256059 -0.0436157 0.347989 647.801 877.237)" rx="32" ry="14"/>
      <ellipse class="fil1" transform="matrix(0.31174 -0.00587972 -0.0405345 0.245052 664.385 864.466)" rx="32" ry="14"/>
      <ellipse class="fil1" transform="matrix(0.255919 -0.00532778 -0.0332762 0.222049 679.126 855.009)" rx="32" ry="14"/>
      <ellipse class="fil1" transform="matrix(0.2179 0.00442751 -0.0283327 0.187896 693.862 848.604)" rx="32" ry="14"/>
      <ellipse class="fil1" transform="matrix(0.169666 0.00344746 -0.0220611 0.146304 705.359 844.066)" rx="32" ry="14"/>
      <ellipse class="fil1" transform="matrix(0.160911 0.00326956 -0.0209227 0.138754 716.714 840.224)" rx="32" ry="14"/>
      <ellipse class="fil1" transform="matrix(0.127243 0.00258546 -0.016545 0.109722 728.21 837.624)" rx="32" ry="14"/>
      <ellipse class="fil1" transform="matrix(0.357405 0.0254658 -0.0652748 0.259819 679.847 782.641)" rx="32" ry="14"/>
      <ellipse class="fil1" transform="matrix(0.31357 0.0417992 -0.057269 0.256836 708.378 786.928)" rx="32" ry="14"/>
      <ellipse class="fil1" transform="matrix(0.265392 0.0353769 -0.04847 0.217375 730.763 792.129)" rx="32" ry="14"/>
      <ellipse class="fil1" transform="matrix(0.22304 0.0297315 -0.0407351 0.182686 750.425 796.036)" rx="32" ry="14"/>
      <ellipse class="fil1" transform="matrix(0.176398 0.023514 -0.0322166 0.144482 767.147 799.353)" rx="32" ry="14"/>
      <ellipse class="fil1" transform="matrix(0.138231 0.0258234 -0.025246 0.11187 780.093 802.406)" rx="32" ry="14"/>
      <ellipse class="fil1" transform="matrix(0.102565 0.0241358 -0.0273677 0.0832481 789.578 805.08)" rx="32" ry="14"/>
      <ellipse class="fil1" transform="matrix(0.300844 0.0013108 -0.0394164 0.251319 659.186 803.731)" rx="32" ry="14"/>
      <ellipse class="fil1" transform="matrix(0.268985 0.0249806 -0.0352422 0.190824 686.694 805.168)" rx="32" ry="14"/>
      <ellipse class="fil1" transform="matrix(0.219008 0.0203392 -0.0286942 0.155369 707.546 807.108)" rx="32" ry="14"/>
      <ellipse class="fil1" transform="matrix(0.179403 0.0321268 -0.0235052 0.125246 727.016 809.186)" rx="32" ry="14"/>
      <ellipse class="fil1" transform="matrix(0.146111 0.0321268 -0.0191434 0.125246 741.858 812.303)" rx="32" ry="14"/>
      <ellipse class="fil1" transform="matrix(0.142026 0.0312285 -0.0186082 0.121744 753.632 815.486)" rx="32" ry="14"/>
      <ellipse class="fil1" transform="matrix(0.13729 0.0301871 -0.0179876 0.117684 764.107 819.189)" rx="32" ry="14"/>
      <ellipse class="fil1" transform="matrix(0.299792 0.0252167 -0.0591828 0.247395 665.474 793.387)" rx="32" ry="14"/>
      <ellipse class="fil1" transform="matrix(0.263271 0.0381849 -0.0653255 0.215213 693.69 796.339)" rx="32" ry="14"/>
      <ellipse class="fil1" transform="matrix(0.216037 0.0413944 -0.0536054 0.174105 716.946 799.788)" rx="32" ry="14"/>
      <ellipse class="fil1" transform="matrix(0.189046 0.0362227 -0.046908 0.152353 736.943 802.81)" rx="32" ry="14"/>
      <ellipse class="fil1" transform="matrix(0.178851 0.0342693 -0.0443785 0.144137 753.947 806.193)" rx="32" ry="14"/>
      <ellipse class="fil1" transform="matrix(0.156508 0.0299882 -0.0388345 0.126131 767.007 810.708)" rx="32" ry="14"/>
      <ellipse class="fil1" transform="matrix(0.1161 0.0222457 -0.028808 0.0935657 778.188 814.098)" rx="32" ry="14"/>
     </g>
    </g>
   </g>
   <g style="clip-path:url(#id2)">
    <path class="fil2" d="M472 22c253,0 457,202 457,450 0,249 -204,451 -457,451 -252,0 -457,-202 -457,-451 0,-248 205,-450 457,-450z"/>
    <rect class="fil1" x="81" y="288" width="782" height="377"/>
    <path class="fil3" d="M136 375l29 0 10 -25 59 -47 -35 0 -30 22 -12 -22 -31 0 21 44 -11 28zm133 2c36,0 63,-21 63,-43 0,-18 -21,-32 -51,-32 -36,0 -62,20 -62,42 0,19 20,33 50,33zm2 -18c-14,0 -23,-7 -23,-16 0,-11 12,-23 31,-23 15,0 23,7 23,16 0,10 -12,23 -31,23zm102 18c26,0 45,-11 45,-25 0,-11 -12,-16 -28,-20 -14,-4 -17,-5 -17,-8 0,-3 4,-5 11,-5 11,0 16,1 24,6l12 -17c-13,-5 -15,-6 -33,-6 -26,0 -45,10 -45,24 0,11 11,16 27,20 15,4 18,6 18,9 0,3 -5,5 -12,5 -11,0 -16,-3 -26,-9l-14 16c11,7 17,10 38,10zm50 -2l29 0 10 -27 38 0 -11 27 29 0 28 -72 -29 0 -11 27 -37 0 11 -27 -29 0 -28 72zm121 0l30 0 28 -72 -29 0 -29 72zm58 0l28 0c25,0 43,-4 56,-13 11,-8 16,-18 16,-28 0,-9 -2,-20 -10,-25 -8,-6 -21,-6 -42,-6l-21 0 -27 72zm35 -19l14 -35c8,0 12,0 16,1 9,3 10,23 -3,28 -8,4 -14,6 -27,6l0 0zm65 17l32 0 10 -11 37 0 3 13 30 0 -16 -72 -32 0 -64 70zm53 -26l18 -21 6 21 -24 0z"/>
    <path class="fil3" d="M663 469c0,-24 8,-44 22,-57 14,-14 34,-21 60,-21 26,0 47,7 61,20 14,14 21,33 21,57 0,18 -3,32 -9,43 -6,12 -15,20 -27,27 -12,6 -26,9 -44,9 -18,0 -33,-3 -44,-8 -12,-5 -21,-14 -29,-26 -7,-11 -11,-26 -11,-44zm-545 -75l149 0 0 37 -57 0 0 114 -45 0 0 -114 -47 0 0 -37zm162 75c0,-24 8,-44 22,-57 15,-14 35,-21 62,-21 27,0 48,7 62,20 15,14 22,33 22,57 0,18 -3,32 -10,43 -6,12 -15,20 -27,27 -12,6 -27,9 -45,9 -18,0 -34,-3 -46,-8 -12,-5 -21,-14 -29,-26 -7,-11 -11,-26 -11,-44zm50 0c0,16 3,27 9,33 6,7 15,10 25,10 11,0 19,-3 25,-10 6,-6 9,-18 9,-35 0,-14 -3,-24 -9,-31 -6,-6 -15,-10 -25,-10 -10,0 -19,4 -25,10 -6,7 -9,18 -9,33zm233 21l0 -29 70 0c-5,9 -1,13 5,11l7 -3 -1 75 -34 0 0 -11c-35,21 -100,19 -122,-22 -7,-12 -10,-26 -10,-42 0,-16 4,-29 11,-41 28,-49 128,-59 151,18l-48 0c-2,-6 -8,-12 -13,-15 -4,-3 -10,-5 -17,-5 -11,0 -19,4 -26,11 -6,7 -9,16 -9,32 0,16 3,28 9,35 7,6 16,10 27,10 6,0 11,-1 16,-2 5,-2 10,-4 17,-8l0 -14 -33 0zm149 -21c0,16 3,27 9,33 6,7 14,10 24,10 11,0 19,-3 25,-10 6,-6 9,-18 9,-35 0,-14 -4,-24 -10,-31 -6,-6 -14,-10 -24,-10 -10,0 -18,4 -24,10 -6,7 -9,18 -9,33z"/>
   </g>
   <g style="clip-path:url(#id3)">
    <g id="_1117182000">
     <ellipse class="fil1" transform="matrix(-0.465603 0.25184 0.467622 0.436452 794.29 412.413)" rx="32" ry="14"/>
     <ellipse class="fil1" transform="matrix(-0.510757 0.130283 0.348024 0.225446 675.352 497.818)" rx="32" ry="14"/>
     <ellipse class="fil1" transform="matrix(-0.510757 0.130283 0.348024 0.225446 708.789 471.607)" rx="32" ry="14"/>
     <ellipse class="fil1" transform="matrix(-0.510757 0.180969 0.348024 0.313155 718.771 440.246)" rx="32" ry="14"/>
     <ellipse class="fil1" transform="matrix(-0.178349 0.0658674 0.121525 0.174559 613.411 501.041)" rx="32" ry="14"/>
     <ellipse class="fil1" transform="matrix(-0.188049 0.0694499 0.128134 0.184054 631.282 505.711)" rx="32" ry="14"/>
     <ellipse class="fil1" transform="matrix(-0.201689 0.0744876 0.137429 0.197404 643.952 513.419)" rx="32" ry="14"/>
     <ellipse class="fil1" transform="matrix(-0.192874 0.0222424 0.0832469 0.204365 600.627 514.665)" rx="32" ry="14"/>
     <ellipse class="fil1" transform="matrix(-0.15952 0.0183959 0.0688507 0.169024 606.431 521.292)" rx="32" ry="14"/>
     <ellipse class="fil1" transform="matrix(-0.185064 0.0213417 0.0798758 0.19609 567.937 530.174)" rx="32" ry="14"/>
     <ellipse class="fil1" transform="matrix(-0.185064 0.0213417 0.0798758 0.19609 573.474 521.293)" rx="32" ry="14"/>
     <ellipse class="fil1" transform="matrix(-0.131724 0.0151904 0.0568535 0.139572 556.383 523.196)" rx="32" ry="14"/>
     <ellipse class="fil1" transform="matrix(-0.147769 -0.00449387 0.0426022 0.163425 541.97 521.881)" rx="32" ry="14"/>
     <ellipse class="fil1" transform="matrix(-0.147769 -0.00449387 0.0426022 0.163425 530.015 516.056)" rx="32" ry="14"/>
     <ellipse class="fil1" transform="matrix(-0.127987 -0.00389228 0.0368991 0.141548 521.117 508.833)" rx="32" ry="14"/>
     <ellipse class="fil1" transform="matrix(-0.115256 -0.00350509 0.0332285 0.127467 511.781 501.167)" rx="32" ry="14"/>
     <ellipse class="fil1" transform="matrix(-0.100851 -0.0444486 -0.0259418 0.133086 517.513 495.641)" rx="32" ry="14"/>
     <ellipse class="fil1" transform="matrix(-0.100851 -0.0444486 -0.0259418 0.133086 526.435 503.262)" rx="32" ry="14"/>
     <ellipse class="fil1" transform="matrix(-0.108176 -0.047677 -0.027826 0.142752 534.395 509.596)" rx="32" ry="14"/>
     <ellipse class="fil1" transform="matrix(-0.11206 -0.0363246 -0.0145238 0.144935 544.419 513.868)" rx="32" ry="14"/>
     <ellipse class="fil1" transform="matrix(-0.116805 -0.0104294 0.0148921 0.144893 554.444 517.267)" rx="32" ry="14"/>
     <ellipse class="fil1" transform="matrix(-0.118896 -0.0106161 0.0151587 0.147487 570.285 512.934)" rx="32" ry="14"/>
     <ellipse class="fil1" transform="matrix(-0.116426 0.014398 0.0104624 -0.145325 547.291 529.314)" rx="32" ry="14"/>
     <ellipse class="fil1" transform="matrix(-0.116426 0.014398 0.0104624 -0.145325 530.83 528.537)" rx="32" ry="14"/>
     <ellipse class="fil1" transform="matrix(-0.116426 0.014398 0.0104624 -0.145325 536.946 536.943)" rx="32" ry="14"/>
     <ellipse class="fil1" transform="matrix(-0.116426 0.014398 0.0104624 -0.145325 518.277 535.583)" rx="32" ry="14"/>
     <ellipse class="fil1" transform="matrix(-0.116426 0.014398 0.0104624 -0.145325 517.266 526.748)" rx="32" ry="14"/>
     <ellipse class="fil1" transform="matrix(-0.116426 0.014398 0.0104624 -0.145325 507.887 521.698)" rx="32" ry="14"/>
     <ellipse class="fil1" transform="matrix(-0.441341 -0.0134218 0.12724 0.488101 473.31 444.99)" rx="32" ry="14"/>
     <ellipse class="fil1" transform="matrix(-0.270273 0.0216295 0.0779204 0.290303 491.801 465.707)" rx="32" ry="14"/>
     <ellipse class="fil1" transform="matrix(-0.182851 0.0191732 0.0527163 0.257337 497.018 477.991)" rx="32" ry="14"/>
     <ellipse class="fil1" transform="matrix(-0.135898 0.0142499 0.0391798 0.191258 498.261 488.74)" rx="32" ry="14"/>
     <ellipse class="fil1" transform="matrix(-0.125929 0.0132046 0.0363057 0.177228 497.201 498.066)" rx="32" ry="14"/>
     <ellipse class="fil1" transform="matrix(-0.110279 0.0115635 0.0317936 0.155202 492.742 505.857)" rx="32" ry="14"/>
     <ellipse class="fil1" transform="matrix(-0.110279 0.0115635 0.0317936 0.155202 486.857 511.585)" rx="32" ry="14"/>
     <ellipse class="fil1" transform="matrix(-0.112629 -0.0343048 0.0629214 -0.129721 521.497 520.342)" rx="32" ry="14"/>
     <ellipse class="fil1" transform="matrix(-0.112629 -0.0343048 0.0629214 -0.129721 513.818 514.031)" rx="32" ry="14"/>
     <ellipse class="fil1" transform="matrix(-0.112629 -0.0343048 0.0629214 -0.129721 503.979 507.428)" rx="32" ry="14"/>
     <ellipse class="fil1" transform="matrix(-0.15952 0.0183959 0.0688507 0.169024 607.89 532.601)" rx="32" ry="14"/>
     <ellipse class="fil1" transform="matrix(-0.270273 0.0216295 0.0779204 0.290303 438.317 466.463)" rx="32" ry="14"/>
     <ellipse class="fil1" transform="matrix(-0.249044 0.0325257 0.0717999 0.263869 418.873 482.304)" rx="32" ry="14"/>
     <ellipse class="fil1" transform="matrix(-0.359775 -0.14242 -0.08759 0.391257 164.531 442.081)" rx="32" ry="14"/>
     <ellipse class="fil1" transform="matrix(-0.359775 0.14242 -0.08759 -0.391257 215.422 467.605)" rx="32" ry="14"/>
     <ellipse class="fil1" transform="matrix(0.183619 0.0496351 0.018423 -0.206454 282.221 478.609)" rx="32" ry="14"/>
     <ellipse class="fil1" transform="matrix(0.315278 0.0852245 0.0316327 -0.354485 338.093 484.538)" rx="32" ry="14"/>
     <ellipse class="fil1" transform="matrix(0.249954 -0.00849551 -0.0486531 -0.268739 284.941 498.628)" rx="32" ry="14"/>
     <ellipse class="fil1" transform="matrix(0.148255 -0.00503895 -0.0288576 -0.159397 281.67 500.17)" rx="32" ry="14"/>
     <ellipse class="fil1" transform="matrix(0.147315 0.0632594 0.0375004 -0.169425 316.658 495.785)" rx="32" ry="14"/>
     <ellipse class="fil1" transform="matrix(0.147315 0.0632594 0.0375004 -0.169425 327.693 509.475)" rx="32" ry="14"/>
     <ellipse class="fil1" transform="matrix(0.191274 0.0581613 0.0254502 -0.216105 309.471 512.744)" rx="32" ry="14"/>
     <ellipse class="fil1" transform="matrix(0.164729 0.0222008 -0.00511624 -0.181604 324.771 527.036)" rx="32" ry="14"/>
     <ellipse class="fil1" transform="matrix(0.13537 0.018244 -0.00420439 -0.149237 335.414 522.412)" rx="32" ry="14"/>
     <ellipse class="fil1" transform="matrix(0.117465 -0.000571721 -0.0195484 -0.126846 345.405 519.01)" rx="32" ry="14"/>
     <ellipse class="fil1" transform="matrix(0.117465 -0.000571721 -0.0195484 -0.126846 354.189 515.176)" rx="32" ry="14"/>
     <ellipse class="fil1" transform="matrix(0.117465 -0.000571721 -0.0195484 -0.126846 363.801 507.387)" rx="32" ry="14"/>
     <ellipse class="fil1" transform="matrix(0.166891 -0.000812285 -0.0277738 -0.180219 357.518 533.225)" rx="32" ry="14"/>
     <ellipse class="fil1" transform="matrix(0.13633 -0.00647972 -0.028326 -0.146277 365.392 526.392)" rx="32" ry="14"/>
     <ellipse class="fil1" transform="matrix(0.117465 -0.000571721 -0.0195484 -0.126846 373.733 521.367)" rx="32" ry="14"/>
     <ellipse class="fil1" transform="matrix(0.0946727 -0.000460788 -0.0157554 -0.102233 380.542 517.929)" rx="32" ry="14"/>
     <ellipse class="fil1" transform="matrix(0.0988002 -0.000480877 -0.0164423 -0.106691 386.099 513.788)" rx="32" ry="14"/>
     <ellipse class="fil1" transform="matrix(0.0946727 -0.000460788 -0.0157554 -0.102233 370.425 514.725)" rx="32" ry="14"/>
     <ellipse class="fil1" transform="matrix(0.0946727 -0.000460788 -0.0157554 -0.102233 377.782 507.734)" rx="32" ry="14"/>
     <ellipse class="fil1" transform="matrix(0.0946727 -0.000460788 -0.0157554 -0.102233 383.483 502.006)" rx="32" ry="14"/>
     <ellipse class="fil1" transform="matrix(0.135273 -0.000658395 -0.022512 -0.146076 386.45 535.131)" rx="32" ry="14"/>
     <ellipse class="fil1" transform="matrix(0.119328 -0.0056716 -0.0247933 -0.128034 390.042 528.156)" rx="32" ry="14"/>
     <ellipse class="fil1" transform="matrix(0.119328 -0.0056716 -0.0247933 -0.128034 396.111 522.332)" rx="32" ry="14"/>
     <ellipse class="fil1" transform="matrix(0.102921 -0.00489182 -0.0213845 -0.110431 400.274 518.114)" rx="32" ry="14"/>
     <ellipse class="fil1" transform="matrix(0.102921 -0.00489182 -0.0213845 -0.110431 404.78 512.287)" rx="32" ry="14"/>
     <ellipse class="fil1" transform="matrix(0.0986709 -0.00468979 -0.0205013 -0.10587 407.678 507.011)" rx="32" ry="14"/>
     <ellipse class="fil1" transform="matrix(0.0870595 -0.00478701 -0.0180888 -0.108065 410.08 497.857)" rx="32" ry="14"/>
     <ellipse class="fil1" transform="matrix(0.0746965 -0.00355029 -0.01552 -0.0801466 410.473 491.4)" rx="32" ry="14"/>
     <ellipse class="fil1" transform="matrix(0.0988002 -0.000480877 -0.0164423 -0.106691 394.352 507.31)" rx="32" ry="14"/>
     <ellipse class="fil1" transform="matrix(0.0988002 -0.000480877 -0.0164423 -0.106691 391.941 497.636)" rx="32" ry="14"/>
     <ellipse class="fil1" transform="matrix(0.0988002 -0.000480877 -0.0164423 -0.106691 400.144 502.891)" rx="32" ry="14"/>
     <ellipse class="fil1" transform="matrix(0.163622 -0.00777689 -0.0339965 -0.175561 438.356 486.451)" rx="32" ry="14"/>
     <ellipse class="fil1" transform="matrix(0.0870595 -0.00478701 -0.0180888 -0.108065 428.336 495.078)" rx="32" ry="14"/>
     <ellipse class="fil1" transform="matrix(0.0870595 -0.00478701 -0.0180888 -0.108065 422.819 504.496)" rx="32" ry="14"/>
     <ellipse class="fil1" transform="matrix(0.0870595 -0.00478701 -0.0180888 -0.108065 417.21 511.971)" rx="32" ry="14"/>
     <ellipse class="fil1" transform="matrix(0.0870595 -0.00478701 -0.0180888 -0.108065 413.807 520.03)" rx="32" ry="14"/>
    </g>
   </g>
   <g style="clip-path:url(#id4)">
    <path class="fil4" d="M663 469c0,-24 8,-44 22,-57 14,-14 34,-21 60,-21 26,0 47,7 61,20 14,14 21,33 21,57 0,18 -3,32 -9,43 -6,12 -15,20 -27,27 -12,6 -26,9 -44,9 -18,0 -33,-3 -44,-8 -12,-5 -21,-14 -29,-26 -7,-11 -11,-26 -11,-44zm-545 -75l149 0 0 37 -57 0 0 114 -45 0 0 -114 -47 0 0 -37zm162 75c0,-24 8,-44 22,-57 15,-14 35,-21 62,-21 27,0 48,7 62,20 15,14 22,33 22,57 0,18 -3,32 -10,43 -6,12 -15,20 -27,27 -12,6 -27,9 -45,9 -18,0 -34,-3 -46,-8 -12,-5 -21,-14 -29,-26 -7,-11 -11,-26 -11,-44zm50 0c0,16 3,27 9,33 6,7 15,10 25,10 11,0 19,-3 25,-10 6,-6 9,-18 9,-35 0,-14 -3,-24 -9,-31 -6,-6 -15,-10 -25,-10 -10,0 -19,4 -25,10 -6,7 -9,18 -9,33zm233 21l0 -29 70 0c-5,9 -1,13 5,11l7 -3 -1 75 -34 0 0 -11c-35,21 -100,19 -122,-22 -7,-12 -10,-26 -10,-42 0,-16 4,-29 11,-41 28,-49 128,-59 151,18l-48 0c-2,-6 -8,-12 -13,-15 -4,-3 -10,-5 -17,-5 -11,0 -19,4 -26,11 -6,7 -9,16 -9,32 0,16 3,28 9,35 7,6 16,10 27,10 6,0 11,-1 16,-2 5,-2 10,-4 17,-8l0 -14 -33 0zm149 -21c0,16 3,27 9,33 6,7 14,10 24,10 11,0 19,-3 25,-10 6,-6 9,-18 9,-35 0,-14 -4,-24 -10,-31 -6,-6 -14,-10 -24,-10 -10,0 -18,4 -24,10 -6,7 -9,18 -9,33z"/>
    <polygon class="fil3" points="346,567 347,567 376,567 352,625 383,625 375,644 374,644 315,644 "/>
    <path id="1" class="fil3" d="M465 591l1 0 25 0 -22 53 -1 0 -24 0 2 -5c-4,2 -7,3 -11,5 -5,1 -9,2 -14,2l-1 0c-10,0 -17,-3 -21,-9 -3,-6 -3,-12 0,-20l1 -2 2 -3c3,-6 8,-11 15,-16 7,-5 16,-7 26,-7l1 0c4,0 8,1 11,1 3,1 6,3 8,6l2 -5zm-17 35c3,-2 6,-5 7,-9 2,-3 2,-6 0,-9 -2,-2 -5,-3 -9,-3 -5,0 -9,1 -12,3 -4,3 -6,5 -7,8l0 1 -1 0c-1,3 -1,6 1,9 1,3 4,4 9,4 4,0 8,-1 12,-4z"/>
    <path id="2" class="fil3" d="M518 644l-1 0 -25 0 33 -81 1 0 26 0 -13 32 1 -1 2 -1c3,-1 6,-2 10,-3 3,-1 6,-1 10,-1l1 0c10,0 17,3 21,8 4,5 4,12 1,20 -2,4 -4,8 -7,11 -2,3 -6,6 -10,9 -8,6 -17,9 -28,9l-1 0c-1,0 -2,0 -3,0 -1,-1 -2,-1 -2,-1 -1,0 -2,0 -2,0 -1,0 -2,0 -3,-1 -2,0 -3,-1 -5,-2 -1,-1 -2,-2 -4,-3l-2 5zm31 -18c4,-2 6,-5 8,-9 1,-3 1,-6 -1,-9 -1,-2 -4,-3 -9,-3 -3,0 -7,1 -10,2 -2,2 -5,4 -6,6l-2 2 -1 2 -1 2 0 3c0,2 0,4 2,5 1,2 4,3 8,3 4,0 8,-1 12,-4z"/>
    <path id="3" class="fil3" d="M605 627c4,-3 8,-4 12,-4l1 0c4,0 7,1 9,4 2,2 3,4 2,8 -2,3 -4,5 -8,7 -4,3 -8,4 -12,4l-1 0c-4,0 -7,-1 -9,-4 -2,-2 -3,-4 -1,-8 1,-3 3,-5 7,-7z"/>
   </g>
  </g>
  <polygon class="fil2" points="0,0 945,0 945,945 0,945 "/>
 </g>
</svg>
