<svg width="24" height="24" viewBox="0 0 24 24" fill="none" xmlns="http://www.w3.org/2000/svg">
<path d="M17.0005 22H7.00049C6.47006 22 5.96135 21.7893 5.58627 21.4142C5.2112 21.0391 5.00049 20.5304 5.00049 20V7H3.00049V5H7.00049V4C7.00049 3.46957 7.2112 2.96086 7.58627 2.58579C7.96135 2.21071 8.47006 2 9.00049 2H15.0005C15.5309 2 16.0396 2.21071 16.4147 2.58579C16.7898 2.96086 17.0005 3.46957 17.0005 4V5H21.0005V7H19.0005V20C19.0005 20.5304 18.7898 21.0391 18.4147 21.4142C18.0396 21.7893 17.5309 22 17.0005 22ZM7.00049 7V20H17.0005V7H7.00049ZM9.00049 4V5H15.0005V4H9.00049Z" fill="black"/>
</svg>
