<svg width="20" height="20" viewBox="0 0 20 20" fill="none" xmlns="http://www.w3.org/2000/svg">
<path d="M14.8399 16.722C14.7682 16.8091 14.6781 16.8792 14.5761 16.9273C14.4741 16.9754 14.3626 17.0002 14.2499 17C14.1517 17.0006 14.0545 16.9814 13.964 16.9436C13.8734 16.9058 13.7914 16.8502 13.7229 16.78L10.7189 13.772C10.5784 13.6314 10.4995 13.4408 10.4995 13.242C10.4995 13.0432 10.5784 12.8526 10.7189 12.712C10.7883 12.6422 10.8709 12.5868 10.9619 12.5491C11.0528 12.5113 11.1504 12.4918 11.2489 12.4918C11.3473 12.4918 11.4449 12.5113 11.5358 12.5491C11.6268 12.5868 11.7094 12.6422 11.7789 12.712L13.4999 14.444V3.75C13.4999 3.55109 13.5789 3.36032 13.7195 3.21967C13.8602 3.07902 14.0509 3 14.2499 3C14.4488 3 14.6395 3.07902 14.7802 3.21967C14.9208 3.36032 14.9999 3.55109 14.9999 3.75V14.434L16.7219 12.716C16.7913 12.6464 16.8739 12.5911 16.9647 12.5534C17.0556 12.5157 17.153 12.4963 17.2514 12.4963C17.3497 12.4963 17.4471 12.5157 17.538 12.5534C17.6288 12.5911 17.7114 12.6464 17.7809 12.716C17.9213 12.8566 18.0002 13.0472 18.0002 13.246C18.0002 13.4448 17.9213 13.6354 17.7809 13.776L14.8389 16.722H14.8399Z" fill="black"/>
<path d="M5.33934 3.27801C5.2677 3.1909 5.17762 3.12077 5.07559 3.0727C4.97356 3.02462 4.86213 2.9998 4.74934 3.00001C4.65123 2.99944 4.55401 3.01862 4.46347 3.05642C4.37293 3.09422 4.29092 3.14985 4.22234 3.22001L1.21934 6.22801C1.07889 6.36864 1 6.55926 1 6.75801C1 6.95676 1.07889 7.14739 1.21934 7.28801C1.28884 7.3578 1.37143 7.41317 1.46238 7.45095C1.55334 7.48873 1.65085 7.50818 1.74934 7.50818C1.84783 7.50818 1.94534 7.48873 2.0363 7.45095C2.12725 7.41317 2.20984 7.3578 2.27934 7.28801L3.99934 5.55701V16.25C3.99934 16.4489 4.07836 16.6397 4.21901 16.7803C4.35966 16.921 4.55043 17 4.74934 17C4.94825 17 5.13902 16.921 5.27967 16.7803C5.42032 16.6397 5.49934 16.4489 5.49934 16.25V5.56601L7.22134 7.28401C7.29082 7.35365 7.37335 7.40889 7.46421 7.44658C7.55507 7.48428 7.65247 7.50368 7.75084 7.50368C7.84921 7.50368 7.94661 7.48428 8.03747 7.44658C8.12833 7.40889 8.21086 7.35365 8.28034 7.28401C8.42079 7.14339 8.49968 6.95276 8.49968 6.75401C8.49968 6.55526 8.42079 6.36464 8.28034 6.22401L5.33834 3.27701L5.33934 3.27801Z" fill="#E4E7EB"/>
</svg>
