<svg width="32" height="33" viewBox="0 0 32 33" fill="none" xmlns="http://www.w3.org/2000/svg">
<path d="M10.9998 17.6086L22.2395 27.4995C22.3695 27.6139 22.5271 27.6926 22.6967 27.7278C22.8663 27.7631 23.0421 27.7537 23.207 27.7005C23.3719 27.6473 23.5201 27.5522 23.6372 27.4246C23.7543 27.2969 23.8362 27.141 23.8748 26.9721L28.5766 6.45555C28.6172 6.27816 28.6087 6.09305 28.5519 5.92015C28.4951 5.74725 28.3922 5.59313 28.2543 5.47438C28.1164 5.35564 27.9487 5.27678 27.7693 5.2463C27.5899 5.21582 27.4056 5.23488 27.2362 5.30143L4.16657 14.3645C3.96552 14.4435 3.79544 14.5854 3.6818 14.7691C3.56815 14.9529 3.51705 15.1684 3.53614 15.3836C3.55522 15.5988 3.64347 15.802 3.78768 15.9628C3.93188 16.1236 4.12429 16.2335 4.33611 16.2758L10.9998 17.6086Z" stroke="#75A6FA" stroke-width="2" stroke-linecap="round" stroke-linejoin="round"/>
<path d="M11 17.6086L28.014 5.32068" stroke="#75A6FA" stroke-width="2" stroke-linecap="round" stroke-linejoin="round"/>
<path d="M16.6134 22.5483L12.7071 26.4546C12.5673 26.5944 12.3891 26.6897 12.1951 26.7283C12.0011 26.7668 11.8 26.747 11.6173 26.6713C11.4346 26.5957 11.2784 26.4675 11.1685 26.303C11.0587 26.1386 11 25.9452 11 25.7475V17.6085" stroke="#75A6FA" stroke-width="2" stroke-linecap="round" stroke-linejoin="round"/>
</svg>
