<svg width="20" height="14" viewBox="0 0 20 14" fill="none" xmlns="http://www.w3.org/2000/svg">
<mask id="mask0" mask-type="alpha" maskUnits="userSpaceOnUse" x="0" y="0" width="20" height="14">
<path fill-rule="evenodd" clip-rule="evenodd" d="M7.11339 7C8.9524 7 10.4484 5.50402 10.4484 3.665C10.4484 1.82599 8.9524 0.330002 7.11339 0.330002C5.27438 0.330002 3.77839 1.82599 3.77839 3.665C3.77839 5.50402 5.27438 7 7.11339 7ZM0.44339 12.0025C0.44339 9.78234 4.8837 8.6675 7.11339 8.6675C9.34308 8.6675 13.7834 9.78234 13.7834 12.0025V13.67H0.44339V12.0025ZM7.11339 10.5732C5.40778 10.5732 3.47348 11.2116 2.67308 11.7643H11.5537C10.7533 11.2116 8.819 10.5732 7.11339 10.5732ZM8.54268 3.665C8.54268 2.87413 7.90426 2.23572 7.11339 2.23572C6.32252 2.23572 5.6841 2.87413 5.6841 3.665C5.6841 4.45587 6.32252 5.09429 7.11339 5.09429C7.90426 5.09429 8.54268 4.45587 8.54268 3.665ZM13.8215 8.72467C14.9268 9.52507 15.6891 10.5923 15.6891 12.0025V13.67H19.5005V12.0025C19.5005 10.0777 16.1655 8.98195 13.8215 8.72467ZM16.1655 3.665C16.1655 5.50402 14.6695 7 12.8305 7C12.316 7 11.8396 6.87613 11.4012 6.6665C12.0015 5.81846 12.3541 4.77984 12.3541 3.665C12.3541 2.55016 12.0015 1.51154 11.4012 0.663502C11.8396 0.453873 12.316 0.330002 12.8305 0.330002C14.6695 0.330002 16.1655 1.82599 16.1655 3.665Z" fill="white"/>
</mask>
<g mask="url(#mask0)">
<rect x="-2" y="-5" width="24" height="24" fill="#66788A"/>
</g>
</svg>
